<?xml version="1.0" encoding="UTF-8"?>
<svg width="100%" height="auto" version="1.1" viewBox="0 0 297 210" xmlns="http://www.w3.org/2000/svg" xmlns:cc="http://creativecommons.org/ns#" xmlns:dc="http://purl.org/dc/elements/1.1/" xmlns:rdf="http://www.w3.org/1999/02/22-rdf-syntax-ns#">
<metadata>
<rdf:RDF>
<cc:Work rdf:about="">
<dc:format>image/svg+xml</dc:format>
<dc:type rdf:resource="http://purl.org/dc/dcmitype/StillImage"/>
<dc:title/>
</cc:Work>
</rdf:RDF>
</metadata>
<g transform="matrix(2.2016 0 0 2.2016 -32.39 -60.955)">
<rect x="19.984" y="30.013" width="122.94" height="90.872" ry="2.5391" fill="#f9f9f9" stroke="#000" stroke-opacity=".27638" stroke-width=".26458"/>
<rect x="19.984" y="30.013" width="122.94" height="3.5266" ry="1.7633" fill="#4254b0"/>
<rect x="19.988" y="31.687" width="122.95" height="6.1377" rx="0" ry="0" fill="#4254b0"/>
<circle cx="27.579" cy="34.318" r="1.6036" fill="#f9f9f9" fill-opacity=".68342"/>
<circle cx="32.871" cy="34.318" r="1.6036" fill="#f9f9f9" fill-opacity=".68342"/>
<circle cx="38.163" cy="34.318" r="1.6036" fill="#f9f9f9" fill-opacity=".68342"/>
<rect x="30.456" y="41.973" width="103.57" height="18.359" fill="#4254b0" fill-opacity=".47739"/>
<rect x="31.459" y="94.7" width="101.84" height="6.2066" fill="#4254b0" fill-opacity=".47739"/>
<rect x="36.573" y="52.125" width="36.579" height="3.2604" rx="0" ry="0" fill="#4254b0" fill-opacity=".47739" stroke="#f9f9f9" stroke-width=".35337"/>
<rect x="74.144" y="52.125" width="36.579" height="3.2604" rx="0" ry="0" fill="#4254b0" fill-opacity=".47739" stroke="#f9f9f9" stroke-width=".35337"/>
<rect x="111.78" y="52.125" width="11.642" height="3.2604" rx="0" ry="0" fill="#4254b0" stroke="#f9f9f9" stroke-width=".19935"/>
<rect x="31.515" y="62.977" width="32.315" height="14.082" fill="#4254b0" fill-opacity=".47739"/>
<rect x="33.614" y="73.155" width="27.662" height=".57229" rx="0" ry="0" fill="#f9f9f9"/>
<rect x="33.614" y="74.214" width="27.662" height=".57229" rx="0" ry="0" fill="#f9f9f9"/>
<rect x="33.614" y="75.272" width="27.662" height=".57229" rx="0" ry="0" fill="#f9f9f9"/>
<rect x="33.645" y="64.56" width="10.772" height="6.9926" rx="0" ry="0" fill="#7381c4"/>
<g transform="matrix(.94891 0 0 1 95.517 -72.287)" fill="#fff">
<rect x="-52.686" y="143.33" width="16.604" height=".57229" rx="0" ry="0"/>
<rect x="-52.686" y="142.27" width="16.604" height=".57229" rx="0" ry="0"/>
<rect x="-52.686" y="141.21" width="16.604" height=".57229" rx="0" ry="0"/>
<rect x="-52.686" y="136.98" width="16.604" height="1.1068" rx="0" ry="0"/>
<g transform="translate(0 -.52917)">
<rect x="-52.686" y="139.09" width="7.7931" height=".57229" rx="0" ry="0"/>
<rect x="-44.091" y="139.09" width="8.0515" height=".57229" rx="0" ry="0"/>
<g transform="translate(0 1.0583)">
<rect x="-52.686" y="139.09" width="7.7931" height=".57229" rx="0" ry="0"/>
<rect x="-44.091" y="139.09" width="8.0515" height=".57229" rx="0" ry="0"/>
</g>
</g>
</g>
<rect x="66.44" y="62.977" width="32.315" height="14.082" fill="#4254b0" fill-opacity=".47739"/>
<rect x="68.54" y="73.155" width="27.662" height=".57229" rx="0" ry="0" fill="#f9f9f9"/>
<rect x="68.54" y="74.214" width="27.662" height=".57229" rx="0" ry="0" fill="#f9f9f9"/>
<rect x="68.54" y="75.272" width="27.662" height=".57229" rx="0" ry="0" fill="#f9f9f9"/>
<rect x="68.57" y="64.56" width="10.772" height="6.9926" rx="0" ry="0" fill="#7381c4"/>
<rect x="80.448" y="71.039" width="15.756" height=".57229" rx="0" ry="0" fill="#fff"/>
<rect x="80.448" y="69.98" width="15.756" height=".57229" rx="0" ry="0" fill="#fff"/>
<rect x="80.448" y="68.922" width="15.756" height=".57229" rx="0" ry="0" fill="#fff"/>
<g transform="translate(164.64 -76.974)" fill="#fff">
<rect x="-84.19" y="141.66" width="15.756" height="1.1068" rx="0" ry="0"/>
<g transform="matrix(.94891 0 0 1 -34.196 4.1577)">
<rect x="-52.686" y="139.09" width="7.7931" height=".57229" rx="0" ry="0"/>
<rect x="-44.091" y="139.09" width="8.0515" height=".57229" rx="0" ry="0"/>
</g>
</g>
<g transform="matrix(.94891 0 0 1 130.44 -71.758)" fill="#fff">
<rect x="-52.686" y="139.09" width="7.7931" height=".57229" rx="0" ry="0"/>
<rect x="-44.091" y="139.09" width="8.0515" height=".57229" rx="0" ry="0"/>
</g>
<rect x="100.84" y="62.977" width="32.315" height="14.082" fill="#4254b0" fill-opacity=".47739"/>
<rect x="102.94" y="73.155" width="27.662" height=".57229" rx="0" ry="0" fill="#f9f9f9"/>
<rect x="102.94" y="74.214" width="27.662" height=".57229" rx="0" ry="0" fill="#f9f9f9"/>
<rect x="102.94" y="75.272" width="27.662" height=".57229" rx="0" ry="0" fill="#f9f9f9"/>
<rect x="102.97" y="64.56" width="10.772" height="6.9926" rx="0" ry="0" fill="#7381c4"/>
<g transform="matrix(.94891 0 0 1 164.84 -72.287)" fill="#fff">
<rect x="-52.686" y="143.33" width="16.604" height=".57229" rx="0" ry="0"/>
<rect x="-52.686" y="142.27" width="16.604" height=".57229" rx="0" ry="0"/>
<rect x="-52.686" y="141.21" width="16.604" height=".57229" rx="0" ry="0"/>
<rect x="-52.686" y="136.98" width="16.604" height="1.1068" rx="0" ry="0"/>
<g transform="translate(0 -.52917)">
<rect x="-52.686" y="139.09" width="7.7931" height=".57229" rx="0" ry="0"/>
<rect x="-44.091" y="139.09" width="8.0515" height=".57229" rx="0" ry="0"/>
<g transform="translate(0 1.0583)">
<rect x="-52.686" y="139.09" width="7.7931" height=".57229" rx="0" ry="0"/>
<rect x="-44.091" y="139.09" width="8.0515" height=".57229" rx="0" ry="0"/>
</g>
</g>
</g>
<rect x="31.515" y="78.852" width="32.315" height="14.082" fill="#4254b0" fill-opacity=".47739"/>
<rect x="33.614" y="89.03" width="27.662" height=".57229" rx="0" ry="0" fill="#f9f9f9"/>
<rect x="33.614" y="90.089" width="27.662" height=".57229" rx="0" ry="0" fill="#f9f9f9"/>
<rect x="33.614" y="91.147" width="27.662" height=".57229" rx="0" ry="0" fill="#f9f9f9"/>
<rect x="33.645" y="80.435" width="10.772" height="6.9926" rx="0" ry="0" fill="#7381c4"/>
<g transform="matrix(.94891 0 0 1 95.517 -56.412)" fill="#fff">
<rect x="-52.686" y="143.33" width="16.604" height=".57229" rx="0" ry="0"/>
<rect x="-52.686" y="142.27" width="16.604" height=".57229" rx="0" ry="0"/>
<rect x="-52.686" y="141.21" width="16.604" height=".57229" rx="0" ry="0"/>
<rect x="-52.686" y="136.98" width="16.604" height="1.1068" rx="0" ry="0"/>
<g transform="translate(0 -.52917)">
<rect x="-52.686" y="139.09" width="7.7931" height=".57229" rx="0" ry="0"/>
<rect x="-44.091" y="139.09" width="8.0515" height=".57229" rx="0" ry="0"/>
<g transform="translate(0 1.0583)">
<rect x="-52.686" y="139.09" width="7.7931" height=".57229" rx="0" ry="0"/>
<rect x="-44.091" y="139.09" width="8.0515" height=".57229" rx="0" ry="0"/>
</g>
</g>
</g>
<rect x="66.44" y="78.852" width="32.315" height="14.082" fill="#4254b0" fill-opacity=".47739"/>
<rect x="68.54" y="89.03" width="27.662" height=".57229" rx="0" ry="0" fill="#f9f9f9"/>
<rect x="68.54" y="90.089" width="27.662" height=".57229" rx="0" ry="0" fill="#f9f9f9"/>
<rect x="68.54" y="91.147" width="27.662" height=".57229" rx="0" ry="0" fill="#f9f9f9"/>
<rect x="68.57" y="80.435" width="10.772" height="6.9926" rx="0" ry="0" fill="#7381c4"/>
<g transform="matrix(.94891 0 0 1 130.44 -56.412)" fill="#fff">
<rect x="-52.686" y="143.33" width="16.604" height=".57229" rx="0" ry="0"/>
<rect x="-52.686" y="142.27" width="16.604" height=".57229" rx="0" ry="0"/>
<rect x="-52.686" y="141.21" width="16.604" height=".57229" rx="0" ry="0"/>
<rect x="-52.686" y="136.98" width="16.604" height="1.1068" rx="0" ry="0"/>
<g transform="translate(0 -.52917)">
<rect x="-52.686" y="139.09" width="7.7931" height=".57229" rx="0" ry="0"/>
<rect x="-44.091" y="139.09" width="8.0515" height=".57229" rx="0" ry="0"/>
<g transform="translate(0 1.0583)">
<rect x="-52.686" y="139.09" width="7.7931" height=".57229" rx="0" ry="0"/>
<rect x="-44.091" y="139.09" width="8.0515" height=".57229" rx="0" ry="0"/>
</g>
</g>
</g>
<rect x="100.84" y="78.852" width="32.315" height="14.082" fill="#4254b0" fill-opacity=".47739"/>
<rect x="102.94" y="89.03" width="27.662" height=".57229" rx="0" ry="0" fill="#f9f9f9"/>
<rect x="102.94" y="90.089" width="27.662" height=".57229" rx="0" ry="0" fill="#f9f9f9"/>
<rect x="102.94" y="91.147" width="27.662" height=".57229" rx="0" ry="0" fill="#f9f9f9"/>
<rect x="102.97" y="80.435" width="10.772" height="6.9926" rx="0" ry="0" fill="#7381c4"/>
<g transform="matrix(.94891 0 0 1 164.84 -56.412)" fill="#fff">
<rect x="-52.686" y="143.33" width="16.604" height=".57229" rx="0" ry="0"/>
<rect x="-52.686" y="142.27" width="16.604" height=".57229" rx="0" ry="0"/>
<rect x="-52.686" y="141.21" width="16.604" height=".57229" rx="0" ry="0"/>
<rect x="-52.686" y="136.98" width="16.604" height="1.1068" rx="0" ry="0"/>
<g transform="translate(0 -.52917)">
<rect x="-52.686" y="139.09" width="7.7931" height=".57229" rx="0" ry="0"/>
<rect x="-44.091" y="139.09" width="8.0515" height=".57229" rx="0" ry="0"/>
<g transform="translate(0 1.0583)">
<rect x="-52.686" y="139.09" width="7.7931" height=".57229" rx="0" ry="0"/>
<rect x="-44.091" y="139.09" width="8.0515" height=".57229" rx="0" ry="0"/>
</g>
</g>
</g>
<rect x="31.515" y="102.66" width="32.315" height="14.082" fill="#4254b0" fill-opacity=".47739"/>
<rect x="33.614" y="112.84" width="27.662" height=".57229" rx="0" ry="0" fill="#f9f9f9"/>
<rect x="33.614" y="113.9" width="27.662" height=".57229" rx="0" ry="0" fill="#f9f9f9"/>
<rect x="33.614" y="114.96" width="27.662" height=".57229" rx="0" ry="0" fill="#f9f9f9"/>
<rect x="33.645" y="104.25" width="10.772" height="6.9926" rx="0" ry="0" fill="#7381c4"/>
<g transform="matrix(.94891 0 0 1 95.517 -32.599)" fill="#fff">
<rect x="-52.686" y="143.33" width="16.604" height=".57229" rx="0" ry="0"/>
<rect x="-52.686" y="142.27" width="16.604" height=".57229" rx="0" ry="0"/>
<rect x="-52.686" y="141.21" width="16.604" height=".57229" rx="0" ry="0"/>
<rect x="-52.686" y="136.98" width="16.604" height="1.1068" rx="0" ry="0"/>
<g transform="translate(0 -.52917)">
<rect x="-52.686" y="139.09" width="7.7931" height=".57229" rx="0" ry="0"/>
<rect x="-44.091" y="139.09" width="8.0515" height=".57229" rx="0" ry="0"/>
<g transform="translate(0 1.0583)">
<rect x="-52.686" y="139.09" width="7.7931" height=".57229" rx="0" ry="0"/>
<rect x="-44.091" y="139.09" width="8.0515" height=".57229" rx="0" ry="0"/>
</g>
</g>
</g>
<rect x="66.44" y="102.66" width="32.315" height="14.082" fill="#4254b0" fill-opacity=".47739"/>
<rect x="68.54" y="112.84" width="27.662" height=".57229" rx="0" ry="0" fill="#f9f9f9"/>
<rect x="68.54" y="113.9" width="27.662" height=".57229" rx="0" ry="0" fill="#f9f9f9"/>
<rect x="68.54" y="114.96" width="27.662" height=".57229" rx="0" ry="0" fill="#f9f9f9"/>
<rect x="68.57" y="104.25" width="10.772" height="6.9926" rx="0" ry="0" fill="#7381c4"/>
<g transform="matrix(.94891 0 0 1 130.44 -32.599)" fill="#fff">
<rect x="-52.686" y="143.33" width="16.604" height=".57229" rx="0" ry="0"/>
<rect x="-52.686" y="142.27" width="16.604" height=".57229" rx="0" ry="0"/>
<rect x="-52.686" y="141.21" width="16.604" height=".57229" rx="0" ry="0"/>
<rect x="-52.686" y="136.98" width="16.604" height="1.1068" rx="0" ry="0"/>
<g transform="translate(0 -.52917)">
<rect x="-52.686" y="139.09" width="7.7931" height=".57229" rx="0" ry="0"/>
<rect x="-44.091" y="139.09" width="8.0515" height=".57229" rx="0" ry="0"/>
<g transform="translate(0 1.0583)">
<rect x="-52.686" y="139.09" width="7.7931" height=".57229" rx="0" ry="0"/>
<rect x="-44.091" y="139.09" width="8.0515" height=".57229" rx="0" ry="0"/>
</g>
</g>
</g>
<rect x="100.84" y="102.66" width="32.315" height="14.082" fill="#4254b0" fill-opacity=".47739"/>
<rect x="102.94" y="112.84" width="27.662" height=".57229" rx="0" ry="0" fill="#f9f9f9"/>
<rect x="102.94" y="113.9" width="27.662" height=".57229" rx="0" ry="0" fill="#f9f9f9"/>
<rect x="102.94" y="114.96" width="27.662" height=".57229" rx="0" ry="0" fill="#f9f9f9"/>
<rect x="102.97" y="104.25" width="10.772" height="6.9926" rx="0" ry="0" fill="#7381c4"/>
<g transform="matrix(.94891 0 0 1 164.84 -32.599)" fill="#fff">
<rect x="-52.686" y="143.33" width="16.604" height=".57229" rx="0" ry="0"/>
<rect x="-52.686" y="142.27" width="16.604" height=".57229" rx="0" ry="0"/>
<rect x="-52.686" y="141.21" width="16.604" height=".57229" rx="0" ry="0"/>
<rect x="-52.686" y="136.98" width="16.604" height="1.1068" rx="0" ry="0"/>
<g transform="translate(0 -.52917)">
<rect x="-52.686" y="139.09" width="7.7931" height=".57229" rx="0" ry="0"/>
<rect x="-44.091" y="139.09" width="8.0515" height=".57229" rx="0" ry="0"/>
<g transform="translate(0 1.0583)">
<rect x="-52.686" y="139.09" width="7.7931" height=".57229" rx="0" ry="0"/>
<rect x="-44.091" y="139.09" width="8.0515" height=".57229" rx="0" ry="0"/>
</g>
</g>
</g>
<rect x="54.254" y="45.412" width="56.429" height="2.2691" rx="0" ry="0" fill="#fff"/>
<rect x="56.9" y="48.666" width="50.864" height="1.1732" rx="0" ry="0" fill="#fff"/>
</g>
</svg>
